<svg width="10" height="18" viewBox="0 0 10 18" fill="none" xmlns="http://www.w3.org/2000/svg">
<path d="M6.91687 8.49163C7.28174 9.48954 7.52499 10.6381 7.43811 11.9561C7.29911 14.3661 6.0655 16.0418 4.79714 17.228C4.74502 17.2845 4.60602 17.3598 4.64077 17.4728C5.23151 17.6799 5.89175 17.7929 6.4825 18C8.81072 16.7008 10.4961 12.2008 8.8281 8.90586C8.16785 8.7364 7.54236 8.56695 6.88212 8.39749C6.89949 8.43515 6.88212 8.49163 6.91687 8.49163ZM0.835682 3.80335C0.366561 5.42259 0.314437 7.60669 1.1658 9.09414C1.80867 9.2636 2.45154 9.45188 3.11178 9.62134C2.72954 8.58578 2.46891 7.41841 2.53841 6.06276C2.69479 3.65272 3.9284 1.97699 5.17939 0.771966C5.23151 0.715481 5.38789 0.640167 5.35314 0.527197C4.74502 0.338912 4.08477 0.188285 3.47665 0C2.29517 0.84728 1.33955 2.08996 0.835682 3.80335Z" fill="url(#paint0_linear_13108_3141)"/>
<defs>
<linearGradient id="paint0_linear_13108_3141" x1="0.5" y1="-5.44954" x2="12.222" y2="-4.02572" gradientUnits="userSpaceOnUse">
<stop stop-color="#C0B6F2"/>
<stop offset="1" stop-color="#0065FF"/>
</linearGradient>
</defs>
</svg>
