<svg width="115" height="40" viewBox="0 0 115 40" fill="none" xmlns="http://www.w3.org/2000/svg">
<path d="M23.12 19.1858C23.7186 20.7364 24.1177 22.5211 23.9752 24.5692C23.7471 28.3142 21.7231 30.9181 19.6421 32.7613C19.5566 32.8491 19.3286 32.9661 19.3856 33.1417C20.3548 33.4635 21.4381 33.639 22.4073 33.9609C26.2272 31.9421 28.9923 24.9495 26.2557 19.8295C25.1724 19.5661 24.1462 19.3028 23.0629 19.0395C23.0914 19.098 23.0629 19.1858 23.12 19.1858ZM13.1426 11.9006C12.3729 14.4168 12.2874 17.8107 13.6842 20.122C14.739 20.3853 15.7937 20.6779 16.877 20.9412C16.2498 19.3321 15.8222 17.5181 15.9363 15.4116C16.1928 11.6666 18.2168 9.06265 20.2693 7.19016C20.3548 7.10239 20.6114 6.98536 20.5544 6.80981C19.5566 6.51724 18.4734 6.28318 17.4756 5.9906C15.5372 7.30719 13.9693 9.2382 13.1426 11.9006ZM19.186 0.0220489C25.5145 -0.270527 30.5317 2.39192 33.7529 5.43471C36.9457 8.44824 39.8819 13.1587 39.9959 19.1858C40.1099 25.798 37.8294 30.2744 34.5796 33.7561C31.4724 37.0914 26.7973 39.7831 20.8394 39.9879C14.5109 40.1927 9.60779 37.7644 6.27251 34.5753C2.8232 31.2692 0.37163 27.0268 0.0295498 20.8242C-0.31253 14.4168 2.3671 9.61854 5.3888 6.31243C7.66934 3.82554 10.8051 1.74825 14.739 0.694974C16.1358 0.314625 17.6752 0.109822 19.186 0.0220489Z" fill="white"/>
<path d="M56.0816 14.1523V16.5514C55.0222 15.6445 50.9566 15.0008 50.7848 17.0488C50.6989 18.1021 51.7583 18.5117 52.7604 18.8628C54.7359 19.565 56.9692 20.3257 56.6829 23.1344C56.3393 26.3527 51.2143 27.0549 48.0362 25.7091C48.0362 24.9191 48.0362 23.9829 48.0362 23.1637C48.2652 23.2807 48.8951 23.7488 49.4391 23.9536C50.9566 24.4803 54.1633 24.6851 53.9056 22.5493C53.877 22.1689 53.333 21.73 53.018 21.5545C51.701 20.7938 49.7254 20.589 48.7233 19.4187C47.5208 18.0143 47.9503 15.8785 49.0955 14.8838C50.7848 13.4794 53.6766 13.3624 56.0816 14.1523Z" fill="white"/>
<path d="M60.978 21.4972C60.3481 22.6382 61.0353 23.7208 61.7511 24.0426C63.6121 24.8618 65.6163 23.5452 65.7022 21.4679C65.7308 21.0583 65.7022 20.1513 65.6736 20.1513C65.6736 20.1513 64.7001 20.2976 64.2134 20.3269C62.8677 20.4439 61.4647 20.5609 60.978 21.4972ZM68.3935 26.0321H65.7022C65.7022 25.4177 65.6736 24.7155 65.6736 24.1304C65.0437 25.0959 64.0988 26.1491 62.5527 26.2954C60.1191 26.5587 58.1435 25.3592 58.1149 22.843C58.0862 20.8535 59.0597 19.8002 60.434 19.2151C61.8942 18.6299 63.8412 18.5714 65.7022 18.3081C65.7595 16.4063 64.7574 15.5286 62.6386 15.7042C61.0925 15.8505 59.9759 16.6989 59.3174 17.1085C59.3174 16.3771 59.2888 15.5871 59.2888 14.8264C61.0639 13.4513 65.3873 13.1295 67.1338 14.6509C68.1072 15.4994 68.4222 16.9622 68.4222 18.6299C68.4222 21.2631 68.3935 26.0321 68.3935 26.0321Z" fill="white"/>
<path d="M94.6774 16.494C95.6222 15.3822 96.882 13.8608 98.8575 13.656C101.148 13.4219 102.551 14.68 102.436 16.9914C102.408 17.8691 102.15 18.9224 101.95 19.8586C101.492 22.0237 101.177 23.6036 100.633 26.0612H97.7695C98.1704 23.9547 98.6858 21.7311 99.1439 19.5075C99.4874 17.9569 99.9455 15.3822 97.5405 15.9673C96.0517 16.3184 94.6487 18.1324 94.1906 20.0049C93.6753 21.9944 93.303 24.1302 92.9308 26.0612H90.0677C90.4972 23.9547 90.9553 21.6726 91.442 19.3905C91.7283 18.0739 92.2151 16.1136 90.669 15.8796C90.3254 15.821 89.8673 15.9381 89.581 16.0551C88.1494 16.6403 86.9182 18.2787 86.4888 20.1512C86.0307 22.0822 85.6012 24.218 85.229 26.0612H82.3086C83.1103 21.9944 84.1696 18.1617 84.7995 13.9193H87.6054C87.5481 14.797 87.3763 15.587 87.2905 16.4355C88.1494 15.4992 89.3805 13.8608 91.2702 13.6267C93.3603 13.4219 94.5628 14.4752 94.6774 16.494Z" fill="white"/>
<path d="M73.2329 21.4972C72.603 22.6382 73.2615 23.7208 73.9773 24.0426C75.8384 24.8618 77.8426 23.5452 77.9571 21.4679C77.9857 21.0583 77.9571 20.1513 77.9284 20.1513C77.9284 20.1513 76.9836 20.2976 76.4682 20.3269C75.1226 20.4439 73.7483 20.5609 73.2329 21.4972ZM80.6484 26.0321H77.9571C77.9571 25.4177 77.9571 24.7155 77.9571 24.1304C77.3272 25.0959 76.3537 26.1491 74.8076 26.2954C72.374 26.5587 70.3984 25.3592 70.3698 22.843C70.3411 20.8535 71.3146 19.8002 72.6889 19.2151C74.1491 18.6299 76.096 18.5714 77.9571 18.3081C78.0143 16.4063 77.0122 15.5286 74.8935 15.7042C73.3474 15.8505 72.2308 16.6989 71.5723 17.1085C71.5723 16.3771 71.5436 15.5871 71.5436 14.8264C73.3474 13.4513 77.6708 13.1295 79.3886 14.6509C80.3621 15.4994 80.6771 16.9622 80.6771 18.6299C80.6771 21.2631 80.6484 26.0321 80.6484 26.0321Z" fill="white"/>
<path d="M106.531 21.4972C105.901 22.6382 106.559 23.7208 107.304 24.0426C109.165 24.8618 111.14 23.5452 111.255 21.4679C111.255 21.0583 111.226 20.1513 111.226 20.1513C111.226 20.1513 110.253 20.2976 109.737 20.3269C108.42 20.4439 107.046 20.5609 106.531 21.4972ZM113.975 26.0321H111.284C111.284 25.4177 111.255 24.7155 111.255 24.1304C110.654 25.0959 109.68 26.1491 108.134 26.2954C105.7 26.5587 103.696 25.3592 103.668 22.843C103.639 20.8535 104.584 19.8002 105.987 19.2151C107.447 18.6299 109.394 18.5714 111.284 18.3081C111.341 16.4063 110.339 15.5286 108.22 15.7042C106.674 15.8505 105.557 16.6989 104.899 17.1085C104.899 16.3771 104.87 15.5871 104.87 14.8264C106.645 13.4513 110.969 13.1295 112.715 14.6509C113.689 15.4994 114.004 16.9622 114.004 18.6299C113.975 21.2631 113.975 26.0321 113.975 26.0321Z" fill="white"/>
</svg>
